# xmcd CD database file
#
# Track frame offsets:
#	200
#	20302
#	37270
#	52385
#	76647
#	91147
#	107170
#	122910
#	138200
#	154907
#	174650
#	198300
#
# Disc length: 2964 seconds
#
# Revision: 2
# Processed by: cddbd v1.5.2PL0 Copyright (c) Steve Scherf et al.
# Submitted via: CDex 1.51
#
DISCID=9e0b920c
DTITLE=Lamont Cranston Blues Band - Roll With Me
DYEAR=1997
DGENRE=Blues Rock
TTITLE0=Play The Blues
TTITLE1=What A Party
TTITLE2=Wild Women and Whiskey
TTITLE3=Blinded
TTITLE4=You Don't Know
TTITLE5=Roll WIth Me
TTITLE6=West Side Woman
TTITLE7=Country Farm
TTITLE8=Hip Cat Bounce
TTITLE9=I Couldn't Put You Down
TTITLE10=Hold On
TTITLE11=Don't Take Me Down Again
EXTD=YEAR: 1997
EXTT0=
EXTT1=
EXTT2=
EXTT3=
EXTT4=
EXTT5=
EXTT6=
EXTT7=
EXTT8=
EXTT9=
EXTT10=
EXTT11=
PLAYORDER=
